<svg width="39" height="31" viewBox="0 0 39 31" fill="none" xmlns="http://www.w3.org/2000/svg">
<g clip-path="url(#clip0_130_330)">
<path d="M32.3872 2.58546C29.8798 1.36177 27.2272 0.492288 24.4995 0C24.1597 0.640719 23.7628 1.50249 23.489 2.18807C20.548 1.72676 17.6341 1.72676 14.7472 2.18807C14.4735 1.50264 14.0676 0.640719 13.7247 0C10.9943 0.492503 8.33942 1.3642 5.83087 2.59185C0.839032 10.4601 -0.514219 18.1327 0.162332 25.6967C3.47325 28.2756 6.68186 29.8422 9.83641 30.8674C10.6204 29.7429 11.3135 28.5524 11.9083 27.308C10.7757 26.8583 9.68381 26.304 8.64565 25.6518C8.91883 25.4406 9.1856 25.2204 9.44556 24.9918C15.7364 28.0609 22.5718 28.0609 28.7877 24.9918C29.0488 25.2189 29.3155 25.439 29.5875 25.6518C28.5477 26.3058 27.4538 26.8612 26.3189 27.3113C26.9172 28.5607 27.6089 29.7524 28.3908 30.8705C31.5483 29.8455 34.7599 28.2789 38.0708 25.6967C38.8648 16.9282 36.7147 9.32601 32.3872 2.58546ZM12.7654 21.0449C10.8769 21.0449 9.32818 19.206 9.32818 16.9667C9.32818 14.7273 10.8439 12.8853 12.7654 12.8853C14.687 12.8853 16.2357 14.7241 16.2027 16.9667C16.2057 19.206 14.6871 21.0449 12.7654 21.0449ZM25.4677 21.0449C23.5792 21.0449 22.0306 19.206 22.0306 16.9667C22.0306 14.7273 23.5462 12.8853 25.4677 12.8853C27.3894 12.8853 28.938 14.7241 28.905 16.9667C28.905 19.206 27.3894 21.0449 25.4677 21.0449Z" fill="white"/>
</g>
<defs>
<clipPath id="clip0_130_330">
<rect width="38.2333" height="31" fill="white"/>
</clipPath>
</defs>
</svg>
