<svg width="35" height="37" viewBox="0 0 35 37" fill="none" xmlns="http://www.w3.org/2000/svg">
<path d="M19.4071 34.8854L19.387 34.8891L19.2569 34.9532L19.2202 34.9605L19.1946 34.9532L19.0645 34.8891C19.045 34.883 19.0303 34.886 19.0206 34.8982L19.0132 34.9166L18.9821 35.7007L18.9912 35.7373L19.0096 35.7611L19.2001 35.8967L19.2276 35.904L19.2496 35.8967L19.4401 35.7611L19.4621 35.7318L19.4694 35.7007L19.4383 34.9184C19.4334 34.8988 19.423 34.8879 19.4071 34.8854ZM19.8926 34.6784L19.8688 34.6821L19.5299 34.8524L19.5115 34.8708L19.506 34.8909L19.539 35.6787L19.5482 35.7007L19.5628 35.7135L19.9311 35.8839C19.9543 35.89 19.972 35.8851 19.9842 35.8692L19.9915 35.8436L19.9292 34.7187C19.9231 34.6967 19.9109 34.6833 19.8926 34.6784ZM18.5827 34.6821C18.5746 34.6772 18.565 34.6756 18.5558 34.6776C18.5466 34.6797 18.5385 34.6852 18.5332 34.6931L18.5222 34.7187L18.46 35.8436C18.4612 35.8655 18.4716 35.8802 18.4911 35.8875L18.5186 35.8839L18.8868 35.7135L18.9051 35.6988L18.9125 35.6787L18.9436 34.8909L18.9381 34.8689L18.9198 34.8506L18.5827 34.6821Z" fill="white"/>
<path d="M9.20448 0.604268C10.5809 1.06875 11.8899 1.71309 13.0975 2.52056C14.8041 2.08376 16.559 1.86462 18.3206 1.86836C20.1398 1.86836 21.8949 2.09553 23.54 2.51873C24.7472 1.71204 26.0555 1.06832 27.4312 0.604268C28.7082 0.17008 30.5274 -0.533416 31.6082 0.662893C32.341 1.47631 32.5243 2.83933 32.6543 3.87992C32.8009 5.04142 32.8357 6.55467 32.451 8.05692C33.9221 9.95673 34.8088 12.2229 34.8088 14.6925C34.8088 18.4335 32.7826 21.6816 29.7836 23.9314C28.3396 24.9993 26.739 25.8373 25.0386 26.4156C25.4307 27.3133 25.6487 28.3062 25.6487 29.3486V34.8447C25.6487 35.3306 25.4557 35.7966 25.1121 36.1401C24.7685 36.4837 24.3025 36.6767 23.8167 36.6767H12.8246C12.3387 36.6767 11.8727 36.4837 11.5291 36.1401C11.1855 35.7966 10.9925 35.3306 10.9925 34.8447V33.0292C9.24296 33.2435 7.77551 33.053 6.5279 32.5235C5.22351 31.9703 4.31483 31.1129 3.63148 30.2921C2.98295 29.5154 2.27579 27.764 1.25352 27.4232C1.02521 27.3472 0.814102 27.2269 0.63226 27.0693C0.450419 26.9117 0.301401 26.7198 0.193716 26.5046C-0.0237636 26.07 -0.0596854 25.5668 0.0938532 25.1057C0.247392 24.6446 0.577813 24.2634 1.01243 24.0459C1.44705 23.8284 1.95026 23.7925 2.41136 23.946C3.63148 24.3527 4.42658 25.2321 4.97069 25.9393C5.85006 27.0751 6.56454 28.559 7.95688 29.1508C8.5303 29.3944 9.3712 29.5538 10.6866 29.3743L10.9925 29.312C10.9968 28.3151 11.2043 27.3295 11.6026 26.4156C9.90225 25.8373 8.30166 24.9993 6.85767 23.9314C3.85865 21.6816 1.83244 18.4353 1.83244 14.6925C1.83244 12.2266 2.7173 9.96222 4.18475 8.06425C3.80003 6.56199 3.833 5.04508 3.97957 3.88175L3.98873 3.81213C4.12246 2.7459 4.27818 1.49097 5.02565 0.662893C6.10654 -0.533416 7.92757 0.171912 9.20265 0.6061L9.20448 0.604268Z" fill="white"/>
</svg>
