<svg width="16" height="16" viewBox="0 0 16 16" fill="none" xmlns="http://www.w3.org/2000/svg">
<path d="M1 0L1.76158 8.54389H11.5542L11.2256 12.2085L8.07257 13.061L4.92552 12.2097L4.71509 9.85671H1.87922L2.28477 14.3926L8.07196 16L13.8665 14.3926L14.6434 5.7189H4.34563L4.08708 2.82562H14.8993L15.1524 0H1Z" fill="white"/>
<path d="M8.0762 0H1L1.76158 8.54389H8.0762V5.7189H4.34563L4.08708 2.82562H8.0762V0ZM8.0762 13.0598L8.07258 13.061L4.92552 12.2097L4.71509 9.85671H1.87922L2.28477 14.3926L8.07196 16L8.07629 15.9988L8.0762 13.0598Z" fill="#EBEBEB"/>
</svg>
