<svg width="16" height="16" viewBox="0 0 16 16" fill="none" xmlns="http://www.w3.org/2000/svg">
    <path
        d="M11.1484 9.37344C10.9781 9.28594 10.1297 8.87031 9.97187 8.81406C9.81406 8.75469 9.69843 8.72656 9.58437 8.90156C9.46874 9.075 9.14062 9.46094 9.03749 9.57812C8.93749 9.69375 8.83593 9.70781 8.66562 9.62187C7.65312 9.11562 6.98906 8.71875 6.32187 7.57344C6.14531 7.26875 6.49843 7.29062 6.82812 6.63281C6.88437 6.51719 6.85624 6.41875 6.81249 6.33125C6.76874 6.24375 6.42499 5.39687 6.28124 5.05156C6.14218 4.71562 5.99843 4.7625 5.89374 4.75625C5.79374 4.75 5.67968 4.75 5.56406 4.75C5.44843 4.75 5.26249 4.79375 5.10468 4.96406C4.94687 5.1375 4.50156 5.55469 4.50156 6.40156C4.50156 7.24844 5.11874 8.06875 5.20312 8.18437C5.29062 8.3 6.41718 10.0375 8.14687 10.7859C9.24062 11.2578 9.66874 11.2984 10.2156 11.2172C10.5484 11.1672 11.2344 10.8016 11.3766 10.3969C11.5187 9.99375 11.5187 9.64844 11.4766 9.57656C11.4344 9.5 11.3187 9.45625 11.1484 9.37344Z"
        fill="white" />
    <path
        d="M14.4562 5.2875C14.1031 4.44844 13.5969 3.69531 12.9516 3.04844C12.3062 2.40313 11.5531 1.89531 10.7125 1.54375C9.85312 1.18281 8.94062 1 8 1H7.96875C7.02187 1.00469 6.10468 1.19219 5.24218 1.56094C4.40937 1.91719 3.6625 2.42344 3.02343 3.06875C2.38437 3.71406 1.88281 4.46406 1.53593 5.3C1.17656 6.16563 0.99531 7.08594 0.999997 8.03281C1.00468 9.11719 1.26406 10.1938 1.75 11.1562V13.5312C1.75 13.9281 2.07187 14.25 2.46875 14.25H4.84531C5.80781 14.7359 6.88437 14.9953 7.96875 15H8.00156C8.9375 15 9.84531 14.8188 10.7 14.4641C11.5359 14.1156 12.2875 13.6156 12.9312 12.9766C13.5766 12.3375 14.0844 11.5906 14.4391 10.7578C14.8078 9.89531 14.9953 8.97812 15 8.03125C15.0047 7.07969 14.8203 6.15625 14.4562 5.2875ZM12.0953 12.1313C11 13.2156 9.54687 13.8125 8 13.8125H7.97343C7.03125 13.8078 6.09531 13.5734 5.26875 13.1328L5.1375 13.0625H2.9375V10.8625L2.86718 10.7312C2.42656 9.90469 2.19218 8.96875 2.1875 8.02656C2.18125 6.46875 2.77656 5.00625 3.86875 3.90469C4.95937 2.80312 6.41718 2.19375 7.975 2.1875H8.00156C8.78281 2.1875 9.54062 2.33906 10.2547 2.63906C10.9516 2.93125 11.5766 3.35156 12.1141 3.88906C12.65 4.425 13.0719 5.05156 13.3641 5.74844C13.6672 6.47031 13.8187 7.23594 13.8156 8.02656C13.8062 9.58281 13.1953 11.0406 12.0953 12.1313Z"
        fill="white" />
</svg>