<svg width="25" height="17" viewBox="0 0 25 17" fill="none" xmlns="http://www.w3.org/2000/svg">
<path d="M0.20815 13.8779L2.98859 12.1952C3.52509 13.1463 4.01305 13.951 5.18356 13.951C6.30553 13.951 7.01306 13.5122 7.01306 11.805V0.195298H10.4275V11.8533C10.4275 15.3898 8.35446 16.9996 5.32989 16.9996C2.59842 16.9996 1.0129 15.5849 0.208008 13.8776M12.2821 13.512L15.0623 11.9024C15.7942 13.0976 16.7455 13.9756 18.4282 13.9756C19.8431 13.9756 20.7452 13.2682 20.7452 12.2926C20.7452 11.1219 19.8184 10.7072 18.2574 10.0245L17.404 9.6583C14.9405 8.60985 13.3065 7.29273 13.3065 4.51229C13.3065 1.95128 15.2576 0 18.3064 0C20.4771 0 22.0381 0.756211 23.1599 2.73176L20.5012 4.43919C19.9158 3.39046 19.2819 2.97588 18.3063 2.97588C17.3062 2.97588 16.6721 3.61003 16.6721 4.43919C16.6721 5.46351 17.3062 5.87838 18.7695 6.51253L19.6231 6.87829C22.5256 8.12232 24.1597 9.39048 24.1597 12.2439C24.1597 15.3173 21.7451 17 18.5013 17C15.3307 17 13.2819 15.4879 12.282 13.5122" fill="white"/>
</svg>
