<svg width="16" height="16" viewBox="0 0 16 16" fill="none" xmlns="http://www.w3.org/2000/svg">
<g clip-path="url(#clip0_168_51)">
<path d="M2.97395 2.80445C3.46895 3.20795 3.65645 3.17945 4.59095 3.11695L13.401 2.58845C13.5885 2.58845 13.4325 2.40095 13.3695 2.36945L11.906 1.31195C11.6275 1.09295 11.2525 0.845948 10.536 0.905448L2.00745 1.53045C1.69495 1.55895 1.63245 1.71545 1.75745 1.84045L2.97395 2.80445ZM3.50245 4.85945V14.1274C3.50245 14.6249 3.74995 14.8124 4.30995 14.7809L13.9925 14.2209C14.5525 14.1894 14.6175 13.8484 14.6175 13.4424V4.23695C14.6175 3.83045 14.461 3.61445 14.1175 3.64595L4.00045 4.23695C3.62545 4.26845 3.50295 4.45295 3.50295 4.85695L3.50245 4.85945ZM13.06 5.35395C13.1225 5.63545 13.06 5.91395 12.7785 5.94795L12.3125 6.04195V12.8829C11.906 13.1019 11.534 13.2269 11.224 13.2269C10.724 13.2269 10.599 13.0704 10.2265 12.6044L7.17445 7.81295V12.4484L8.14045 12.6674C8.14045 12.6674 8.14045 13.2274 7.36195 13.2274L5.21345 13.3524C5.15095 13.2274 5.21345 12.9149 5.43245 12.8549L5.99245 12.6984V6.57095L5.21395 6.50845C5.15145 6.22695 5.30795 5.82345 5.74245 5.79245L8.04695 5.63595L11.224 10.4899V6.19545L10.414 6.10145C10.3515 5.76045 10.599 5.51045 10.9115 5.48145L13.06 5.35395ZM1.29145 0.689948L10.164 0.0364476C11.2525 -0.0575524 11.534 0.0049476 12.2185 0.502448L15.052 2.49445C15.518 2.83545 15.6745 2.92945 15.6745 3.30195V14.2214C15.6745 14.9064 15.4245 15.3099 14.5545 15.3724L4.24695 15.9949C3.59595 16.0264 3.28345 15.9324 2.93945 15.4974L0.853451 12.7889C0.480951 12.2914 0.324951 11.9189 0.324951 11.4844V1.77895C0.324951 1.21895 0.574951 0.752948 1.29095 0.690448L1.29145 0.689948Z" fill="#E3E3E3"/>
</g>
<defs>
<clipPath id="clip0_168_51">
<rect width="16" height="16" fill="white"/>
</clipPath>
</defs>
</svg>
