<svg width="40" height="40" viewBox="0 0 40 40" fill="none" xmlns="http://www.w3.org/2000/svg">
<g clip-path="url(#clip0_130_335)">
<path d="M36.0938 0H3.90625C1.74889 0 0 1.74889 0 3.90625V36.0938C0 38.2511 1.74889 40 3.90625 40H36.0938C38.2511 40 40 38.2511 40 36.0938V3.90625C40 1.74889 38.2511 0 36.0938 0Z" fill="url(#paint0_linear_130_335)"/>
<path d="M32.9251 5.19995H24.4751C23.4396 5.19995 22.6001 6.03942 22.6001 7.07495V20.825C22.6001 21.8605 23.4396 22.7 24.4751 22.7H32.9251C33.9606 22.7 34.8001 21.8605 34.8001 20.825V7.07495C34.8001 6.03942 33.9606 5.19995 32.9251 5.19995Z" fill="white"/>
<path d="M15.525 5.19995H7.07495C6.03942 5.19995 5.19995 6.03942 5.19995 7.07495V30.825C5.19995 31.8605 6.03942 32.7 7.07495 32.7H15.525C16.5605 32.7 17.4 31.8605 17.4 30.825V7.07495C17.4 6.03942 16.5605 5.19995 15.525 5.19995Z" fill="white"/>
</g>
<defs>
<clipPath id="clip0_130_335">
<rect width="40" height="40" fill="white"/>
</clipPath>
</defs>
</svg>
