<svg width="32" height="21" viewBox="0 0 32 21" fill="none" xmlns="http://www.w3.org/2000/svg">
<path d="M26.7838 0.303976C27.8486 0.549826 28.8159 1.10728 29.5626 1.90523C29.9731 2.33746 30.3306 2.81709 30.6276 3.33398C30.6413 3.39023 28.7101 4.68773 27.5388 5.41148C27.4963 5.44023 27.3276 5.25648 27.1363 4.97398C26.9227 4.60588 26.6191 4.29807 26.254 4.07943C25.8888 3.86079 25.4741 3.73848 25.0488 3.72398C23.7026 3.63148 22.8351 4.33648 22.8413 5.51523C22.8297 5.80482 22.8957 6.09225 23.0326 6.34773C23.3288 6.96023 23.8788 7.32773 25.6063 8.07648C28.7863 9.44523 30.1513 10.3477 30.9938 11.6302C31.4699 12.4406 31.7631 13.3453 31.8529 14.2808C31.9427 15.2164 31.827 16.1603 31.5138 17.0465C31.0836 18.0186 30.4008 18.8577 29.5364 19.4765C28.6721 20.0953 27.6577 20.4713 26.5988 20.5652C25.4733 20.693 24.3364 20.6813 23.2138 20.5302C21.4944 20.2478 19.9105 19.4225 18.6938 18.1752C18.2343 17.6573 17.8451 17.0811 17.5363 16.4615C17.6668 16.3661 17.8033 16.2792 17.9451 16.2015C18.1426 16.089 18.8901 15.659 19.5951 15.2502L20.8751 14.5002L21.1426 14.8902C21.5938 15.5339 22.1672 16.0826 22.8301 16.5052C23.5001 16.8727 24.2591 17.0469 25.0223 17.0083C25.7855 16.9697 26.523 16.7198 27.1526 16.2865C27.4773 15.97 27.6803 15.5493 27.726 15.0982C27.7717 14.647 27.6572 14.1942 27.4026 13.819C27.0576 13.3252 26.3526 12.9102 24.3488 12.0415C22.7776 11.5117 21.3465 10.6335 20.1626 9.47273C19.5991 8.82988 19.1828 8.07183 18.9426 7.25148C18.7649 6.31674 18.7388 5.35952 18.8651 4.41648C19.0999 3.33112 19.663 2.34428 20.4778 1.58981C21.2927 0.835351 22.3199 0.349784 23.4201 0.198977C24.5402 0.0651217 25.6742 0.100517 26.7838 0.303976ZM16.3551 2.15773L16.3688 3.97523H10.5813V20.4102H6.50005V3.97898H0.712553V2.19398C0.697193 1.58269 0.713883 0.971016 0.762553 0.361476C0.783803 0.332726 4.30255 0.318976 8.5688 0.326476L16.3326 0.347726L16.3551 2.15773Z" fill="white"/>
</svg>
