<svg width="16" height="16" viewBox="0 0 16 16" fill="none" xmlns="http://www.w3.org/2000/svg">
<path d="M14.505 2.51499L11.622 1.12699C11.4592 1.04834 11.276 1.02235 11.0978 1.05264C10.9195 1.08293 10.7552 1.16799 10.6275 1.29599L1.19001 9.89999C1.07551 10.0039 1.00697 10.149 0.999467 10.3035C0.991965 10.4579 1.04612 10.609 1.15001 10.7235C1.16235 10.7368 1.17518 10.7497 1.18851 10.762L1.95901 11.462C2.0597 11.5536 2.18929 11.6071 2.3253 11.6131C2.4613 11.6192 2.59512 11.5774 2.70351 11.495L14.071 2.87499C14.1569 2.80984 14.2592 2.76994 14.3665 2.7598C14.4738 2.74965 14.5818 2.76966 14.6784 2.81758C14.7749 2.86549 14.8562 2.9394 14.913 3.03099C14.9698 3.12257 15 3.22821 15 3.33599V3.30249C14.9999 3.13797 14.9534 2.97681 14.8658 2.83752C14.7783 2.69823 14.6532 2.58644 14.505 2.51499Z" fill="#0065A9"/>
<path d="M14.505 13.485L11.622 14.8735C11.4592 14.9518 11.276 14.9776 11.0979 14.9473C10.9197 14.917 10.7554 14.8322 10.6275 14.7045L1.19001 6.10001C1.07551 5.99611 1.00697 5.85098 0.999467 5.69655C0.991965 5.54211 1.04612 5.39102 1.15001 5.27651C1.16235 5.26318 1.17518 5.25034 1.18851 5.23801L1.95901 4.53801C2.0598 4.44599 2.18969 4.39228 2.32603 4.38625C2.46237 4.38022 2.5965 4.42225 2.70501 4.50501L14.071 13.125C14.1569 13.1902 14.2592 13.2301 14.3665 13.2402C14.4738 13.2503 14.5818 13.2303 14.6784 13.1824C14.7749 13.1345 14.8562 13.0606 14.913 12.969C14.9698 12.8774 15 12.7718 15 12.664V12.7C14.9994 12.8641 14.9527 13.0247 14.8652 13.1635C14.7776 13.3023 14.6528 13.4137 14.505 13.485Z" fill="#007ACC"/>
<path d="M11.622 14.8735C11.4591 14.9518 11.276 14.9776 11.0978 14.9473C10.9197 14.917 10.7553 14.8322 10.6275 14.7045C10.6993 14.7754 10.7904 14.8235 10.8894 14.8428C10.9885 14.8621 11.091 14.8517 11.1841 14.813C11.2773 14.7743 11.357 14.709 11.4131 14.6252C11.4693 14.5414 11.4995 14.4429 11.5 14.342V1.65802C11.5001 1.55667 11.4701 1.45757 11.4138 1.37328C11.3575 1.28898 11.2775 1.22329 11.1838 1.18453C11.0902 1.14576 10.9871 1.13566 10.8877 1.15551C10.7883 1.17536 10.6971 1.22426 10.6255 1.29602C10.7531 1.16793 10.9174 1.08278 11.0957 1.05241C11.2739 1.02203 11.4572 1.04794 11.62 1.12652L14.5025 2.51252C14.6512 2.58362 14.7767 2.69525 14.8647 2.83457C14.9528 2.97389 14.9996 3.13523 15 3.30002V12.7C14.9999 12.8647 14.9534 13.026 14.8657 13.1654C14.7781 13.3048 14.6529 13.4166 14.5045 13.488L11.622 14.8735Z" fill="#1F9CF0"/>
</svg>
